<svg width="3223" height="598" viewBox="0 0 3223 598" fill="none" xmlns="http://www.w3.org/2000/svg">
<g filter="url(#filter0_d_2_26)">
<path d="M598.05 156.569C606.908 152.748 613.193 145.69 615.274 136.681C617.209 128.306 615.07 120.226 611.494 114.095C604.515 102.131 587.971 91.7674 569.474 99.7455L569.472 99.7463C489.901 134.078 419.542 186.377 362.925 251.503L339.89 278H375H417.613H424.395L429.111 273.126C477.017 223.621 534.5 183.986 598.05 156.569ZM598.05 156.569L591.715 141.884L598.05 156.569Z" fill="#FFDE88" stroke="black" stroke-width="32"/>
<path d="M36 261.536H20V277.536C20 441.211 153.391 573.75 317.751 573.75C482.11 573.75 615.5 441.212 615.5 277.536V261.536H599.5H403.397H361.767H36Z" fill="#FFDE88" stroke="black" stroke-width="32"/>
<path d="M175.144 53.1585C168.44 42.0335 160.23 35.2904 153.914 31.3039C150.844 29.325 147.775 27.9588 146.633 27.4507C146.476 27.3806 146.355 27.3269 146.276 27.2901L146.04 27.1802L145.801 27.0781C144.672 26.5969 143.7 26.2413 142.92 25.9835C142.53 25.8546 142.187 25.75 141.896 25.6662C141.751 25.6244 141.618 25.5877 141.499 25.5558C141.44 25.5398 141.384 25.5251 141.331 25.5114L141.254 25.4918L141.218 25.4827L141.2 25.4782L141.192 25.4761L141.187 25.475C141.185 25.4744 141.183 25.4739 137.318 41L141.183 25.4739L121.947 20.6852L121.326 40.4981L121.326 40.4982L121.326 40.4984L121.326 40.499L121.326 40.5011L121.325 40.5088L121.324 40.5379L121.321 40.6513L121.307 41.0939C121.295 41.4834 121.278 42.0598 121.255 42.811L121.245 43.1384L121.249 43.4489C121.249 43.4489 121.248 43.5467 121.238 43.7859C121.225 44.0731 121.204 44.4327 121.173 44.9331C121.165 45.0726 121.155 45.2229 121.145 45.3825C121.09 46.2418 121.019 47.3731 120.968 48.5581C120.684 53.3396 120.191 59.0696 119.027 64.3854L119.006 64.4799L118.987 64.5746C118.53 66.7882 117.813 69.0298 116.984 70.9902C116.246 72.7208 115.391 74.1761 114.467 75.4476C113.447 76.8434 112.252 78.2172 110.551 79.9759C109.014 81.546 107.134 83.2804 104.836 85.2183L102.875 86.7872L102.802 86.8454L102.73 86.9043L102.21 87.3305L101.205 88.1112L100.77 88.4497L100.358 88.8175L100.292 88.8771L100.266 88.9003L99.9449 89.1857L98.5136 90.4514L98.5001 90.4633L98.4582 90.5003C97.5405 91.3099 96.3846 92.3297 95.2294 93.4284L93.8659 94.7021L93.8462 94.7204L93.8267 94.7388C93.7888 94.7744 93.7706 94.7913 93.731 94.8279C93.6966 94.8597 93.646 94.9064 93.5524 94.9932C93.3949 95.1394 93.1643 95.3549 92.8972 95.6156C92.3688 96.1314 91.8308 96.6942 91.2413 97.3632C88.2756 100.606 85.4884 103.957 82.9296 107.321L82.4574 107.942L82.0478 108.606C79.8427 112.18 77.8466 115.778 76.0632 119.339L75.7651 119.935L75.5174 120.553C74.6249 122.781 73.8905 124.945 73.285 126.794L73.2428 126.923L73.2028 127.052C73.1889 127.098 73.1574 127.191 73.1119 127.325C72.7799 128.309 71.7008 131.504 71.2269 134.423C70.8885 136.458 70.5732 138.621 70.3509 140.845L70.3494 140.86L70.348 140.875C70.3216 141.144 70.2956 141.409 70.27 141.671C70.21 142.285 70.1514 142.883 70.0918 143.484L70.0568 143.837L70.0375 144.19C69.9694 145.434 70.0093 146.509 70.0392 147.144C70.068 147.754 70.078 147.892 70.0845 147.98C70.0896 148.05 70.0924 148.089 70.1005 148.307L70.1032 148.381L70.1067 148.456C70.2762 152.117 70.6193 157.15 72.2536 162.287C72.2715 162.349 72.2944 162.43 72.3221 162.528C72.5937 163.488 73.318 166.049 74.1475 168.057L74.2405 168.282L74.3403 168.504C74.4007 168.638 74.4735 168.803 74.5574 168.993C74.986 169.963 75.7027 171.585 76.5095 173.113C78.2698 176.684 80.5529 179.714 81.6978 181.234C81.8608 181.45 82.0006 181.636 82.1127 181.788L82.3854 182.158L82.679 182.513C84.8451 185.127 86.985 187.208 88.6914 188.801L89.1815 189.258L89.7081 189.672C89.868 189.798 90.0544 189.947 90.2636 190.114C91.5153 191.113 93.5831 192.763 95.6753 194.069L95.8491 194.177L96.0257 194.281C96.1575 194.359 96.3132 194.452 96.4897 194.557C97.5976 195.219 99.5229 196.369 101.475 197.269C105.012 198.969 108.271 199.887 109.612 200.265C109.767 200.308 109.896 200.345 109.997 200.374L110.278 200.457L110.563 200.529C111.791 200.839 112.845 201.044 113.694 201.178C114.118 201.246 114.492 201.296 114.811 201.332C114.97 201.351 115.116 201.366 115.248 201.379C115.314 201.385 115.377 201.391 115.435 201.396L115.521 201.403L115.562 201.406L115.582 201.407L115.592 201.408L115.597 201.408C115.599 201.409 115.601 201.409 116.802 185.454L115.601 201.409L135.102 202.876L132.679 183.471L132.679 183.471L132.679 183.469L132.678 183.463L132.674 183.436L132.661 183.327L132.607 182.895C132.559 182.513 132.489 181.947 132.397 181.207L132.366 180.957L132.327 180.707C132.329 180.724 132.329 180.721 132.326 180.692C132.317 180.603 132.282 180.264 132.23 179.487C132.206 179.137 132.184 178.779 132.158 178.361C132.15 178.227 132.141 178.086 132.132 177.938C132.102 177.464 132.068 176.94 132.029 176.387C132.024 176.198 132.019 176.004 132.014 175.806C131.993 175.015 131.97 174.16 131.945 173.26C131.981 172.226 132.02 171.132 132.06 169.983C132.324 167.591 132.549 166.45 132.759 165.806C132.964 165.298 133.128 164.844 133.254 164.479C133.41 164.226 133.548 163.988 133.67 163.769C133.865 163.52 134.034 163.297 134.169 163.118C134.585 162.718 134.967 162.327 135.318 161.95C135.501 161.797 135.739 161.598 135.955 161.413C136.269 161.145 136.736 160.743 137.275 160.233C138.14 159.594 138.925 158.96 139.636 158.352C140.918 157.561 142.226 156.628 143.507 155.512C143.587 155.456 143.676 155.394 143.755 155.338L143.755 155.337L145.285 154.256C146.599 153.343 147.835 152.414 148.814 151.678L148.827 151.667L151.115 149.973L151.227 149.89L151.337 149.805L155.406 146.679L155.699 146.454L155.981 146.216C162.396 140.799 168.501 134.122 173.43 126.234C178.442 118.265 182.026 109.139 183.631 99.8864C185.267 90.6499 184.911 81.6268 183.214 73.6674C181.512 65.5262 178.417 58.7314 175.238 53.317L175.192 53.2375L175.144 53.1585ZM134.405 162.328C134.409 162.321 134.407 162.324 134.403 162.332L134.405 162.328ZM143.11 155.792C143.089 155.807 143.086 155.809 143.104 155.797C143.105 155.795 143.108 155.794 143.11 155.792Z" fill="#FFDE88" stroke="black" stroke-width="32"/>
<path d="M286.316 41L270.324 40.4769L270.324 40.477L270.324 40.4772L270.324 40.478L270.324 40.4804L270.324 40.4887L270.323 40.5191L270.319 40.635L270.305 41.0829C270.293 41.476 270.275 42.0561 270.252 42.811L270.242 43.1442L270.246 43.4591C270.246 43.4591 270.245 43.5556 270.235 43.7912C270.222 44.0769 270.202 44.4355 270.171 44.9352C270.162 45.0765 270.152 45.2291 270.142 45.3914C270.088 46.2482 270.017 47.3761 269.966 48.5564C269.68 53.3404 269.188 59.0709 268.024 64.3878L268.003 64.4834L267.984 64.5794C267.529 66.7849 266.813 69.0247 265.983 70.9901C265.242 72.7237 264.389 74.1782 263.468 75.4455C262.443 76.847 261.247 78.2225 259.553 79.9719C258.011 81.5457 256.13 83.282 253.834 85.2193L251.874 86.7872L251.801 86.8453L251.729 86.9042L251.209 87.3306L250.204 88.1111L249.732 88.478L249.289 88.879L249.244 88.919L248.947 89.1836L247.512 90.4514L247.503 90.4596L247.455 90.5022C246.539 91.3102 245.382 92.3309 244.226 93.4312L242.866 94.7022L242.846 94.7205L242.827 94.7388C242.789 94.7743 242.771 94.7912 242.73 94.8283C242.696 94.8602 242.645 94.9068 242.553 94.9925C242.396 95.1382 242.166 95.353 241.9 95.6128C241.372 96.128 240.834 96.6904 240.243 97.3596C237.277 100.603 234.488 103.956 231.928 107.321L231.456 107.942L231.047 108.606C228.842 112.18 226.845 115.778 225.062 119.339L224.764 119.935L224.516 120.553C223.623 122.782 222.889 124.946 222.282 126.802L222.241 126.927L222.203 127.052C222.189 127.098 222.157 127.191 222.112 127.325C221.78 128.309 220.701 131.504 220.227 134.423C219.887 136.466 219.574 138.623 219.352 140.836L219.35 140.855L219.348 140.875C219.321 141.145 219.295 141.41 219.27 141.673C219.21 142.286 219.151 142.884 219.092 143.484L219.057 143.837L219.037 144.19C218.969 145.439 219.01 146.518 219.04 147.149C219.067 147.734 219.078 147.884 219.085 147.978C219.09 148.053 219.093 148.093 219.1 148.288L219.103 148.372L219.107 148.456C219.276 152.118 219.619 157.154 221.255 162.293C221.273 162.354 221.296 162.435 221.324 162.533C221.594 163.487 222.32 166.051 223.143 168.047L223.238 168.277L223.34 168.504C223.401 168.638 223.473 168.803 223.557 168.993C223.987 169.964 224.705 171.589 225.513 173.12C227.273 176.685 229.548 179.706 230.697 181.233C230.86 181.448 231 181.634 231.113 181.788L231.385 182.158L231.679 182.513C233.845 185.127 235.985 187.208 237.691 188.801L238.181 189.258L238.708 189.672C238.868 189.798 239.054 189.947 239.264 190.114C240.515 191.113 242.583 192.763 244.675 194.069L244.849 194.177L245.026 194.281C245.157 194.359 245.313 194.452 245.49 194.557C246.598 195.219 248.523 196.369 250.475 197.269C254.013 198.97 257.271 199.887 258.615 200.266C258.77 200.309 258.899 200.346 259 200.375L259.281 200.457L259.565 200.529C260.793 200.84 261.845 201.044 262.693 201.178C263.117 201.246 263.491 201.295 263.809 201.332C263.969 201.351 264.115 201.366 264.247 201.378C264.278 201.381 264.309 201.384 264.339 201.387C264.371 201.39 264.403 201.393 264.434 201.395L264.519 201.402L264.56 201.406L264.58 201.407L264.59 201.408L264.595 201.408C264.597 201.409 264.6 201.409 265.802 185.454L264.6 201.409L284.102 202.878L281.679 183.471L281.679 183.471L281.678 183.469L281.678 183.463L281.674 183.436L281.661 183.327L281.607 182.895C281.559 182.513 281.489 181.947 281.397 181.207L281.366 180.957L281.327 180.707C281.329 180.724 281.329 180.721 281.326 180.692C281.317 180.603 281.282 180.264 281.23 179.487C281.206 179.137 281.184 178.778 281.158 178.361C281.15 178.227 281.141 178.086 281.131 177.938C281.102 177.466 281.068 176.943 281.03 176.393C281.004 175.431 280.976 174.382 280.945 173.259C280.981 172.223 281.02 171.126 281.06 169.974C281.323 167.571 281.547 166.442 281.753 165.813C281.959 165.301 282.124 164.844 282.251 164.477C282.407 164.224 282.545 163.986 282.667 163.768C282.861 163.519 283.03 163.297 283.164 163.118C283.58 162.719 283.963 162.327 284.317 161.948C284.499 161.795 284.736 161.596 284.949 161.415C285.262 161.148 285.73 160.745 286.269 160.235C287.135 159.595 287.92 158.961 288.632 158.352C289.914 157.561 291.224 156.628 292.507 155.509C292.571 155.464 292.651 155.408 292.75 155.338L292.75 155.338L294.276 154.258C295.582 153.352 296.809 152.429 297.777 151.701L297.82 151.669L300.108 149.975L300.222 149.89L300.334 149.804L304.402 146.678L304.694 146.453L304.976 146.216C311.392 140.798 317.495 134.122 322.424 126.234C327.434 118.269 331.021 109.143 332.625 99.8872C334.263 90.6491 333.906 81.6256 332.207 73.6669C330.506 65.5253 327.411 58.7299 324.231 53.3145L324.185 53.2368L324.139 53.1597C317.434 42.0332 309.225 35.29 302.912 31.304C299.839 29.3236 296.775 27.9605 295.625 27.4485C295.466 27.3781 295.344 27.3237 295.263 27.2861L295.032 27.1784L294.796 27.0781C293.671 26.5981 292.701 26.2431 291.923 25.9856C291.534 25.8568 291.192 25.7523 290.902 25.6686C290.757 25.6267 290.625 25.5901 290.506 25.5581C290.446 25.5422 290.39 25.5274 290.338 25.5138L290.261 25.4942L290.225 25.485L290.207 25.4806L290.199 25.4784L290.194 25.4773C290.192 25.4768 290.19 25.4762 286.316 41ZM286.316 41L270.324 40.4768L270.972 20.6795L290.19 25.4762L286.316 41ZM292.116 155.784C292.095 155.8 292.092 155.802 292.109 155.789C292.112 155.788 292.114 155.786 292.116 155.784Z" fill="#FFDE88" stroke="black" stroke-width="32"/>
<path d="M972.425 340.475C969.858 343.592 967.383 346.067 965 347.9C962.617 349.733 959.225 350.65 954.825 350.65C950.608 350.65 946.758 349.642 943.275 347.625C939.975 345.608 936.217 343.408 932 341.025C927.783 338.458 922.833 336.167 917.15 334.15C911.467 332.133 904.408 331.125 895.975 331.125C885.525 331.125 876.45 333.05 868.75 336.9C861.233 340.75 855 346.25 850.05 353.4C845.1 360.55 841.433 369.35 839.05 379.8C836.667 390.067 835.475 401.708 835.475 414.725C835.475 442.042 840.7 463.033 851.15 477.7C861.783 492.367 876.358 499.7 894.875 499.7C904.775 499.7 912.567 498.508 918.25 496.125C924.117 493.558 929.067 490.808 933.1 487.875C937.133 484.758 940.8 481.917 944.1 479.35C947.583 476.783 951.892 475.5 957.025 475.5C963.808 475.5 968.942 477.975 972.425 482.925L997.175 513.45C988.375 523.533 979.117 531.783 969.4 538.2C959.683 544.433 949.692 549.383 939.425 553.05C929.342 556.533 919.167 558.917 908.9 560.2C898.633 561.667 888.642 562.4 878.925 562.4C861.508 562.4 844.825 559.1 828.875 552.5C813.108 545.9 799.175 536.367 787.075 523.9C775.158 511.25 765.625 495.758 758.475 477.425C751.508 459.092 748.025 438.192 748.025 414.725C748.025 394.192 751.05 375.033 757.1 357.25C763.333 339.283 772.408 323.792 784.325 310.775C796.425 297.575 811.275 287.217 828.875 279.7C846.658 272.183 867.192 268.425 890.475 268.425C912.842 268.425 932.458 272 949.325 279.15C966.192 286.3 981.408 296.75 994.975 310.5L972.425 340.475ZM1115.61 297.85C1125.87 289.05 1136.96 281.992 1148.88 276.675C1160.98 271.175 1175.37 268.425 1192.06 268.425C1207.64 268.425 1221.39 271.175 1233.31 276.675C1245.41 281.992 1255.58 289.508 1263.83 299.225C1272.08 308.758 1278.31 320.217 1282.53 333.6C1286.75 346.8 1288.86 361.192 1288.86 376.775V558H1203.61V376.775C1203.61 362.842 1200.4 352.025 1193.98 344.325C1187.56 336.442 1178.12 332.5 1165.66 332.5C1156.31 332.5 1147.51 334.517 1139.26 338.55C1131.19 342.4 1123.31 347.717 1115.61 354.5V558H1030.36V146.325H1115.61V297.85ZM1475.48 268.425C1497.11 268.425 1516.82 271.817 1534.6 278.6C1552.39 285.383 1567.6 295.1 1580.25 307.75C1593.09 320.4 1602.99 335.8 1609.95 353.95C1617.1 371.917 1620.68 392.175 1620.68 414.725C1620.68 437.458 1617.1 457.992 1609.95 476.325C1602.99 494.475 1593.09 509.967 1580.25 522.8C1567.6 535.45 1552.39 545.258 1534.6 552.225C1516.82 559.008 1497.11 562.4 1475.48 562.4C1453.66 562.4 1433.77 559.008 1415.8 552.225C1398.02 545.258 1382.62 535.45 1369.6 522.8C1356.77 509.967 1346.78 494.475 1339.63 476.325C1332.66 457.992 1329.18 437.458 1329.18 414.725C1329.18 392.175 1332.66 371.917 1339.63 353.95C1346.78 335.8 1356.77 320.4 1369.6 307.75C1382.62 295.1 1398.02 285.383 1415.8 278.6C1433.77 271.817 1453.66 268.425 1475.48 268.425ZM1475.48 499.15C1495.09 499.15 1509.49 492.275 1518.65 478.525C1528 464.592 1532.68 443.508 1532.68 415.275C1532.68 387.042 1528 366.05 1518.65 352.3C1509.49 338.55 1495.09 331.675 1475.48 331.675C1455.31 331.675 1440.55 338.55 1431.2 352.3C1421.85 366.05 1417.18 387.042 1417.18 415.275C1417.18 443.508 1421.85 464.592 1431.2 478.525C1440.55 492.275 1455.31 499.15 1475.48 499.15ZM2077.89 272.825L1989.34 558H1920.04C1916.37 558 1913.25 556.9 1910.69 554.7C1908.12 552.5 1906.1 548.833 1904.64 543.7L1863.94 401.525C1861.92 395.108 1860.09 388.783 1858.44 382.55C1856.97 376.317 1855.59 369.992 1854.31 363.575C1853.03 369.992 1851.56 376.408 1849.91 382.825C1848.44 389.242 1846.7 395.658 1844.69 402.075L1803.44 543.7C1800.69 553.233 1794.64 558 1785.29 558H1719.29L1630.74 272.825H1698.94C1704.99 272.825 1710.03 274.292 1714.06 277.225C1718.28 279.975 1721.12 283.458 1722.59 287.675L1751.19 415.55C1753.57 425.267 1755.68 434.708 1757.51 443.875C1759.34 452.858 1760.99 461.933 1762.46 471.1C1764.84 461.933 1767.32 452.858 1769.89 443.875C1772.64 434.708 1775.57 425.267 1778.69 415.55L1814.44 287.4C1815.9 283.183 1818.65 279.7 1822.69 276.95C1826.72 274.017 1831.49 272.55 1836.99 272.55H1874.94C1880.99 272.55 1886.03 274.017 1890.06 276.95C1894.28 279.7 1897.12 283.183 1898.59 287.4L1932.69 415.55C1935.44 425.267 1938.09 434.708 1940.66 443.875C1943.41 453.042 1945.89 462.3 1948.09 471.65C1949.55 462.483 1951.29 453.317 1953.31 444.15C1955.33 434.983 1957.62 425.45 1960.19 415.55L1990.44 287.675C1991.9 283.458 1994.65 279.975 1998.69 277.225C2002.72 274.292 2007.49 272.825 2012.99 272.825H2077.89ZM2275.94 349.275C2269.52 342.125 2262.55 337.175 2255.04 334.425C2247.52 331.492 2239.64 330.025 2231.39 330.025C2223.5 330.025 2216.26 331.583 2209.66 334.7C2203.06 337.817 2197.29 342.858 2192.34 349.825C2187.57 356.608 2183.81 365.5 2181.06 376.5C2178.31 387.5 2176.94 400.792 2176.94 416.375C2176.94 431.408 2178.04 444.058 2180.24 454.325C2182.44 464.592 2185.46 472.933 2189.31 479.35C2193.35 485.583 2198.11 490.075 2203.61 492.825C2209.11 495.575 2215.25 496.95 2222.04 496.95C2228.27 496.95 2233.86 496.4 2238.81 495.3C2243.95 494.017 2248.62 492.275 2252.84 490.075C2257.05 487.875 2261 485.125 2264.66 481.825C2268.51 478.342 2272.27 474.4 2275.94 470V349.275ZM2361.19 146.325V558H2308.39C2297.75 558 2290.79 553.233 2287.49 543.7L2280.89 521.975C2275.2 528.025 2269.25 533.525 2263.01 538.475C2256.78 543.425 2250 547.733 2242.66 551.4C2235.51 554.883 2227.72 557.542 2219.29 559.375C2211.04 561.392 2202.05 562.4 2192.34 562.4C2177.49 562.4 2163.74 559.1 2151.09 552.5C2138.44 545.9 2127.53 536.367 2118.36 523.9C2109.2 511.433 2101.95 496.217 2096.64 478.25C2091.5 460.1 2088.94 439.475 2088.94 416.375C2088.94 395.108 2091.87 375.4 2097.74 357.25C2103.6 338.917 2111.85 323.15 2122.49 309.95C2133.3 296.567 2146.23 286.117 2161.26 278.6C2176.3 271.083 2192.89 267.325 2211.04 267.325C2225.89 267.325 2238.35 269.433 2248.44 273.65C2258.52 277.867 2267.69 283.55 2275.94 290.7V146.325H2361.19ZM2596.16 381.175C2596.16 374.392 2595.24 367.792 2593.41 361.375C2591.76 354.958 2588.92 349.275 2584.88 344.325C2581.03 339.192 2575.9 335.067 2569.48 331.95C2563.07 328.833 2555.27 327.275 2546.11 327.275C2529.97 327.275 2517.32 331.95 2508.16 341.3C2498.99 350.467 2492.94 363.758 2490.01 381.175H2596.16ZM2488.91 430.675C2491.66 454.508 2498.9 471.833 2510.63 482.65C2522.37 493.283 2537.49 498.6 2556.01 498.6C2565.91 498.6 2574.43 497.408 2581.58 495.025C2588.73 492.642 2595.06 489.983 2600.56 487.05C2606.24 484.117 2611.37 481.458 2615.96 479.075C2620.72 476.692 2625.67 475.5 2630.81 475.5C2637.59 475.5 2642.72 477.975 2646.21 482.925L2670.96 513.45C2662.16 523.533 2652.62 531.783 2642.36 538.2C2632.27 544.433 2621.82 549.383 2611.01 553.05C2600.37 556.533 2589.65 558.917 2578.83 560.2C2568.2 561.667 2558.02 562.4 2548.31 562.4C2528.32 562.4 2509.53 559.192 2491.93 552.775C2474.52 546.175 2459.21 536.458 2446.01 523.625C2432.99 510.792 2422.63 494.842 2414.93 475.775C2407.42 456.708 2403.66 434.525 2403.66 409.225C2403.66 390.158 2406.87 372.1 2413.28 355.05C2419.88 338 2429.23 323.058 2441.33 310.225C2453.62 297.392 2468.37 287.217 2485.61 279.7C2503.02 272.183 2522.64 268.425 2544.46 268.425C2563.34 268.425 2580.57 271.358 2596.16 277.225C2611.92 283.092 2625.4 291.617 2636.58 302.8C2647.95 313.983 2656.75 327.733 2662.98 344.05C2669.4 360.183 2672.61 378.517 2672.61 399.05C2672.61 405.467 2672.33 410.692 2671.78 414.725C2671.23 418.758 2670.22 421.967 2668.76 424.35C2667.29 426.733 2665.27 428.383 2662.71 429.3C2660.32 430.217 2657.21 430.675 2653.36 430.675H2488.91ZM2795.02 316.825C2803.82 301.425 2813.9 289.325 2825.27 280.525C2836.82 271.725 2850.02 267.325 2864.87 267.325C2877.7 267.325 2888.15 270.35 2896.22 276.4L2890.72 339.1C2889.8 343.133 2888.24 345.883 2886.04 347.35C2884.03 348.817 2881.18 349.55 2877.52 349.55C2876.05 349.55 2874.13 349.458 2871.74 349.275C2869.36 349.092 2866.88 348.908 2864.32 348.725C2861.75 348.358 2859.09 348.083 2856.34 347.9C2853.78 347.533 2851.39 347.35 2849.19 347.35C2836.73 347.35 2826.73 350.65 2819.22 357.25C2811.88 363.85 2805.65 373.017 2800.52 384.75V558H2715.27V272.825H2765.87C2770.08 272.825 2773.57 273.192 2776.32 273.925C2779.25 274.658 2781.63 275.85 2783.47 277.5C2785.48 278.967 2786.95 280.983 2787.87 283.55C2788.97 286.117 2789.88 289.233 2790.62 292.9L2795.02 316.825Z" fill="black"/>
</g>
<defs>
<filter id="filter0_d_2_26" x="0" y="0.359039" width="2900.22" height="597.391" filterUnits="userSpaceOnUse" color-interpolation-filters="sRGB">
<feFlood flood-opacity="0" result="BackgroundImageFix"/>
<feColorMatrix in="SourceAlpha" type="matrix" values="0 0 0 0 0 0 0 0 0 0 0 0 0 0 0 0 0 0 127 0" result="hardAlpha"/>
<feOffset dy="4"/>
<feGaussianBlur stdDeviation="2"/>
<feComposite in2="hardAlpha" operator="out"/>
<feColorMatrix type="matrix" values="0 0 0 0 0 0 0 0 0 0 0 0 0 0 0 0 0 0 0.25 0"/>
<feBlend mode="normal" in2="BackgroundImageFix" result="effect1_dropShadow_2_26"/>
<feBlend mode="normal" in="SourceGraphic" in2="effect1_dropShadow_2_26" result="shape"/>
</filter>
</defs>
</svg>
