<svg width="3187" height="548" viewBox="0 0 3187 548" fill="none" xmlns="http://www.w3.org/2000/svg">
<path d="M542.123 99.6793C464.029 132.906 394.9 183.556 339.231 246.705H382.285C432.182 195.857 492.037 155.164 558.19 127.02C577.015 119.012 560.779 91.744 542.123 99.6793Z" fill="black"/>
<path d="M325.767 262.536H0C0 417.293 126.145 542.75 281.751 542.75C437.356 542.75 563.5 417.294 563.5 262.536H367.397H325.767Z" fill="black"/>
<path d="M192.179 185.054C192.479 184.363 192.654 183.715 192.88 183.071C193.125 182.432 193.564 181.837 193.876 181.254C194.284 180.681 194.37 180.108 194.863 179.597C195.309 179.084 195.668 178.591 196.022 178.119C196.312 177.644 196.754 177.188 197.247 176.76C197.712 176.333 198.103 175.909 198.457 175.487C199.4 174.651 200.494 173.841 201.25 172.98C202.51 172.135 203.583 171.233 204.58 170.314C205.751 169.69 206.754 169.012 207.623 168.205C207.712 168.078 208.349 167.644 208.872 167.275L210.46 166.151C211.53 165.41 212.571 164.628 213.612 163.846L215.945 162.117L220.014 158.991C225.328 154.504 230.285 149.052 234.229 142.735C238.19 136.444 240.994 129.254 242.227 122.124C243.494 114.99 243.21 108.027 241.915 101.973C240.647 95.8912 238.317 90.7113 235.796 86.4172C230.619 77.8269 224.36 72.7454 219.662 69.7912C217.344 68.2867 215.214 67.4165 213.88 66.7957C212.492 66.2038 211.673 66 211.673 66C211.673 66 211.648 66.7957 211.604 68.2898C211.619 69.7085 211.406 71.8772 211.304 74.3658C211.009 79.3811 210.463 86.1823 209.012 92.8087C208.331 96.1105 207.287 99.3627 206.067 102.244C204.832 105.145 203.364 107.658 201.753 109.871C200.132 112.092 198.381 114.061 196.373 116.135C194.358 118.196 192.024 120.333 189.343 122.587L187.226 124.281L186.701 124.711L186.571 124.819L185.377 125.746L185.285 125.829L184.919 126.155L183.455 127.449C182.478 128.311 181.503 129.172 180.563 130.068L179.143 131.395C178.666 131.844 178.261 132.183 177.514 133.041C174.84 135.957 172.324 138.978 170.02 142.008C168.068 145.171 166.302 148.356 164.725 151.504C164.025 153.251 163.417 155.031 162.846 156.772C162.299 158.545 161.666 160.166 161.372 162.009C161.066 163.846 160.805 165.657 160.627 167.436C160.541 168.317 160.456 169.194 160.369 170.064C160.321 170.939 160.413 171.844 160.445 172.715C160.607 176.22 160.907 179.526 161.9 182.571C162.357 184.088 162.727 185.582 163.291 186.947C163.898 188.299 164.453 189.614 165.121 190.842C166.321 193.359 167.938 195.379 169.355 197.305C170.89 199.157 172.466 200.706 173.962 202.102C175.595 203.388 177.022 204.572 178.502 205.496C180.018 206.389 181.326 207.199 182.638 207.789C185.182 209.029 187.424 209.602 188.843 210.017C190.319 210.391 191.158 210.454 191.158 210.454C191.158 210.454 191.059 209.662 190.875 208.181C190.655 206.778 190.578 204.606 190.4 202.174C190.368 200.978 190.334 199.648 190.292 198.204C190.34 196.858 190.391 195.402 190.445 193.847C190.759 190.854 191.158 187.799 192.179 185.054Z" fill="#FFDE88"/>
<path d="M283.438 185.054C283.737 184.363 283.913 183.715 284.138 183.071C284.386 182.432 284.823 181.837 285.134 181.254C285.543 180.681 285.628 180.108 286.121 179.597C286.567 179.084 286.925 178.591 287.279 178.119C287.569 177.644 288.011 177.188 288.505 176.76C288.97 176.333 289.362 175.909 289.716 175.487C290.656 174.651 291.752 173.841 292.508 172.98C293.768 172.135 294.841 171.233 295.837 170.314C297.009 169.69 298.013 169.012 298.881 168.205C298.97 168.078 299.606 167.644 300.128 167.275L301.717 166.151C302.787 165.41 303.828 164.628 304.868 163.846L307.203 162.117L311.271 158.991C316.584 154.504 321.541 149.052 325.485 142.735C329.446 136.444 332.252 129.254 333.483 122.124C334.752 114.99 334.467 108.027 333.17 101.973C331.904 95.8912 329.574 90.7113 327.052 86.4172C321.876 77.8269 315.618 72.7454 310.921 69.7912C308.602 68.2867 306.474 67.4165 305.138 66.7957C303.75 66.2038 302.933 66 302.933 66C302.933 66 302.907 66.7957 302.862 68.2898C302.879 69.7085 302.666 71.8772 302.564 74.3658C302.267 79.3811 301.722 86.1823 300.272 92.8087C299.591 96.1105 298.547 99.3627 297.327 102.244C296.091 105.145 294.624 107.658 293.014 109.871C291.392 112.092 289.643 114.061 287.633 116.135C285.617 118.196 283.284 120.333 280.604 122.587L278.487 124.281L277.961 124.711L277.831 124.819L276.638 125.746L276.546 125.829L276.18 126.155L274.715 127.449C273.738 128.311 272.764 129.172 271.825 130.068L270.405 131.395C269.927 131.844 269.523 132.183 268.775 133.041C266.101 135.957 263.585 138.978 261.281 142.008C259.329 145.171 257.562 148.356 255.986 151.504C255.286 153.251 254.677 155.031 254.108 156.772C253.561 158.545 252.927 160.166 252.634 162.009C252.328 163.846 252.068 165.657 251.889 167.436C251.803 168.317 251.717 169.194 251.631 170.064C251.583 170.939 251.676 171.844 251.707 172.715C251.869 176.22 252.169 179.526 253.161 182.571C253.62 184.088 253.99 185.582 254.552 186.947C255.16 188.299 255.715 189.614 256.382 190.842C257.586 193.359 259.2 195.379 260.617 197.305C262.151 199.157 263.728 200.706 265.224 202.102C266.857 203.388 268.284 204.572 269.764 205.496C271.28 206.389 272.588 207.199 273.9 207.789C276.443 209.029 278.684 209.602 280.105 210.017C281.582 210.391 282.42 210.454 282.42 210.454C282.42 210.454 282.321 209.662 282.137 208.181C281.917 206.778 281.84 204.606 281.662 202.174C281.631 200.978 281.596 199.648 281.554 198.204C281.602 196.858 281.653 195.402 281.707 193.847C282.018 190.854 282.413 187.799 283.438 185.054Z" fill="#FFDE88"/>
<path d="M936.425 325.475C933.858 328.592 931.383 331.067 929 332.9C926.617 334.733 923.225 335.65 918.825 335.65C914.608 335.65 910.758 334.642 907.275 332.625C903.975 330.608 900.217 328.408 896 326.025C891.783 323.458 886.833 321.167 881.15 319.15C875.467 317.133 868.408 316.125 859.975 316.125C849.525 316.125 840.45 318.05 832.75 321.9C825.233 325.75 819 331.25 814.05 338.4C809.1 345.55 805.433 354.35 803.05 364.8C800.667 375.067 799.475 386.708 799.475 399.725C799.475 427.042 804.7 448.033 815.15 462.7C825.783 477.367 840.358 484.7 858.875 484.7C868.775 484.7 876.567 483.508 882.25 481.125C888.117 478.558 893.067 475.808 897.1 472.875C901.133 469.758 904.8 466.917 908.1 464.35C911.583 461.783 915.892 460.5 921.025 460.5C927.808 460.5 932.942 462.975 936.425 467.925L961.175 498.45C952.375 508.533 943.117 516.783 933.4 523.2C923.683 529.433 913.692 534.383 903.425 538.05C893.342 541.533 883.167 543.917 872.9 545.2C862.633 546.667 852.642 547.4 842.925 547.4C825.508 547.4 808.825 544.1 792.875 537.5C777.108 530.9 763.175 521.367 751.075 508.9C739.158 496.25 729.625 480.758 722.475 462.425C715.508 444.092 712.025 423.192 712.025 399.725C712.025 379.192 715.05 360.033 721.1 342.25C727.333 324.283 736.408 308.792 748.325 295.775C760.425 282.575 775.275 272.217 792.875 264.7C810.658 257.183 831.192 253.425 854.475 253.425C876.842 253.425 896.458 257 913.325 264.15C930.192 271.3 945.408 281.75 958.975 295.5L936.425 325.475ZM1079.61 282.85C1089.87 274.05 1100.96 266.992 1112.88 261.675C1124.98 256.175 1139.37 253.425 1156.06 253.425C1171.64 253.425 1185.39 256.175 1197.31 261.675C1209.41 266.992 1219.58 274.508 1227.83 284.225C1236.08 293.758 1242.31 305.217 1246.53 318.6C1250.75 331.8 1252.86 346.192 1252.86 361.775V543H1167.61V361.775C1167.61 347.842 1164.4 337.025 1157.98 329.325C1151.56 321.442 1142.12 317.5 1129.66 317.5C1120.31 317.5 1111.51 319.517 1103.26 323.55C1095.19 327.4 1087.31 332.717 1079.61 339.5V543H994.355V131.325H1079.61V282.85ZM1439.48 253.425C1461.11 253.425 1480.82 256.817 1498.6 263.6C1516.39 270.383 1531.6 280.1 1544.25 292.75C1557.09 305.4 1566.99 320.8 1573.95 338.95C1581.1 356.917 1584.68 377.175 1584.68 399.725C1584.68 422.458 1581.1 442.992 1573.95 461.325C1566.99 479.475 1557.09 494.967 1544.25 507.8C1531.6 520.45 1516.39 530.258 1498.6 537.225C1480.82 544.008 1461.11 547.4 1439.48 547.4C1417.66 547.4 1397.77 544.008 1379.8 537.225C1362.02 530.258 1346.62 520.45 1333.6 507.8C1320.77 494.967 1310.78 479.475 1303.63 461.325C1296.66 442.992 1293.18 422.458 1293.18 399.725C1293.18 377.175 1296.66 356.917 1303.63 338.95C1310.78 320.8 1320.77 305.4 1333.6 292.75C1346.62 280.1 1362.02 270.383 1379.8 263.6C1397.77 256.817 1417.66 253.425 1439.48 253.425ZM1439.48 484.15C1459.09 484.15 1473.49 477.275 1482.65 463.525C1492 449.592 1496.68 428.508 1496.68 400.275C1496.68 372.042 1492 351.05 1482.65 337.3C1473.49 323.55 1459.09 316.675 1439.48 316.675C1419.31 316.675 1404.55 323.55 1395.2 337.3C1385.85 351.05 1381.18 372.042 1381.18 400.275C1381.18 428.508 1385.85 449.592 1395.2 463.525C1404.55 477.275 1419.31 484.15 1439.48 484.15ZM2041.89 257.825L1953.34 543H1884.04C1880.37 543 1877.25 541.9 1874.69 539.7C1872.12 537.5 1870.1 533.833 1868.64 528.7L1827.94 386.525C1825.92 380.108 1824.09 373.783 1822.44 367.55C1820.97 361.317 1819.59 354.992 1818.31 348.575C1817.03 354.992 1815.56 361.408 1813.91 367.825C1812.44 374.242 1810.7 380.658 1808.69 387.075L1767.44 528.7C1764.69 538.233 1758.64 543 1749.29 543H1683.29L1594.74 257.825H1662.94C1668.99 257.825 1674.03 259.292 1678.06 262.225C1682.28 264.975 1685.12 268.458 1686.59 272.675L1715.19 400.55C1717.57 410.267 1719.68 419.708 1721.51 428.875C1723.34 437.858 1724.99 446.933 1726.46 456.1C1728.84 446.933 1731.32 437.858 1733.89 428.875C1736.64 419.708 1739.57 410.267 1742.69 400.55L1778.44 272.4C1779.9 268.183 1782.65 264.7 1786.69 261.95C1790.72 259.017 1795.49 257.55 1800.99 257.55H1838.94C1844.99 257.55 1850.03 259.017 1854.06 261.95C1858.28 264.7 1861.12 268.183 1862.59 272.4L1896.69 400.55C1899.44 410.267 1902.09 419.708 1904.66 428.875C1907.41 438.042 1909.89 447.3 1912.09 456.65C1913.55 447.483 1915.29 438.317 1917.31 429.15C1919.33 419.983 1921.62 410.45 1924.19 400.55L1954.44 272.675C1955.9 268.458 1958.65 264.975 1962.69 262.225C1966.72 259.292 1971.49 257.825 1976.99 257.825H2041.89ZM2239.94 334.275C2233.52 327.125 2226.55 322.175 2219.04 319.425C2211.52 316.492 2203.64 315.025 2195.39 315.025C2187.5 315.025 2180.26 316.583 2173.66 319.7C2167.06 322.817 2161.29 327.858 2156.34 334.825C2151.57 341.608 2147.81 350.5 2145.06 361.5C2142.31 372.5 2140.94 385.792 2140.94 401.375C2140.94 416.408 2142.04 429.058 2144.24 439.325C2146.44 449.592 2149.46 457.933 2153.31 464.35C2157.35 470.583 2162.11 475.075 2167.61 477.825C2173.11 480.575 2179.25 481.95 2186.04 481.95C2192.27 481.95 2197.86 481.4 2202.81 480.3C2207.95 479.017 2212.62 477.275 2216.84 475.075C2221.05 472.875 2225 470.125 2228.66 466.825C2232.51 463.342 2236.27 459.4 2239.94 455V334.275ZM2325.19 131.325V543H2272.39C2261.75 543 2254.79 538.233 2251.49 528.7L2244.89 506.975C2239.2 513.025 2233.25 518.525 2227.01 523.475C2220.78 528.425 2214 532.733 2206.66 536.4C2199.51 539.883 2191.72 542.542 2183.29 544.375C2175.04 546.392 2166.05 547.4 2156.34 547.4C2141.49 547.4 2127.74 544.1 2115.09 537.5C2102.44 530.9 2091.53 521.367 2082.36 508.9C2073.2 496.433 2065.95 481.217 2060.64 463.25C2055.5 445.1 2052.94 424.475 2052.94 401.375C2052.94 380.108 2055.87 360.4 2061.74 342.25C2067.6 323.917 2075.85 308.15 2086.49 294.95C2097.3 281.567 2110.23 271.117 2125.26 263.6C2140.3 256.083 2156.89 252.325 2175.04 252.325C2189.89 252.325 2202.35 254.433 2212.44 258.65C2222.52 262.867 2231.69 268.55 2239.94 275.7V131.325H2325.19ZM2560.16 366.175C2560.16 359.392 2559.24 352.792 2557.41 346.375C2555.76 339.958 2552.92 334.275 2548.88 329.325C2545.03 324.192 2539.9 320.067 2533.48 316.95C2527.07 313.833 2519.27 312.275 2510.11 312.275C2493.97 312.275 2481.32 316.95 2472.16 326.3C2462.99 335.467 2456.94 348.758 2454.01 366.175H2560.16ZM2452.91 415.675C2455.66 439.508 2462.9 456.833 2474.63 467.65C2486.37 478.283 2501.49 483.6 2520.01 483.6C2529.91 483.6 2538.43 482.408 2545.58 480.025C2552.73 477.642 2559.06 474.983 2564.56 472.05C2570.24 469.117 2575.37 466.458 2579.96 464.075C2584.72 461.692 2589.67 460.5 2594.81 460.5C2601.59 460.5 2606.72 462.975 2610.21 467.925L2634.96 498.45C2626.16 508.533 2616.62 516.783 2606.36 523.2C2596.27 529.433 2585.82 534.383 2575.01 538.05C2564.37 541.533 2553.65 543.917 2542.83 545.2C2532.2 546.667 2522.02 547.4 2512.31 547.4C2492.32 547.4 2473.53 544.192 2455.93 537.775C2438.52 531.175 2423.21 521.458 2410.01 508.625C2396.99 495.792 2386.63 479.842 2378.93 460.775C2371.42 441.708 2367.66 419.525 2367.66 394.225C2367.66 375.158 2370.87 357.1 2377.28 340.05C2383.88 323 2393.23 308.058 2405.33 295.225C2417.62 282.392 2432.37 272.217 2449.61 264.7C2467.02 257.183 2486.64 253.425 2508.46 253.425C2527.34 253.425 2544.57 256.358 2560.16 262.225C2575.92 268.092 2589.4 276.617 2600.58 287.8C2611.95 298.983 2620.75 312.733 2626.98 329.05C2633.4 345.183 2636.61 363.517 2636.61 384.05C2636.61 390.467 2636.33 395.692 2635.78 399.725C2635.23 403.758 2634.22 406.967 2632.76 409.35C2631.29 411.733 2629.27 413.383 2626.71 414.3C2624.32 415.217 2621.21 415.675 2617.36 415.675H2452.91ZM2759.02 301.825C2767.82 286.425 2777.9 274.325 2789.27 265.525C2800.82 256.725 2814.02 252.325 2828.87 252.325C2841.7 252.325 2852.15 255.35 2860.22 261.4L2854.72 324.1C2853.8 328.133 2852.24 330.883 2850.04 332.35C2848.03 333.817 2845.18 334.55 2841.52 334.55C2840.05 334.55 2838.13 334.458 2835.74 334.275C2833.36 334.092 2830.88 333.908 2828.32 333.725C2825.75 333.358 2823.09 333.083 2820.34 332.9C2817.78 332.533 2815.39 332.35 2813.19 332.35C2800.73 332.35 2790.73 335.65 2783.22 342.25C2775.88 348.85 2769.65 358.017 2764.52 369.75V543H2679.27V257.825H2729.87C2734.08 257.825 2737.57 258.192 2740.32 258.925C2743.25 259.658 2745.63 260.85 2747.47 262.5C2749.48 263.967 2750.95 265.983 2751.87 268.55C2752.97 271.117 2753.88 274.233 2754.62 277.9L2759.02 301.825Z" fill="black"/>
</svg>
